<svg width="1001" height="151" viewBox="0 0 1001 151" xmlns="http://www.w3.org/2000/svg"><path d="M84.93 30.442h18.568c6.2 0 11.221-5.024 11.221-11.221C114.72 13.022 109.695 8 103.498 8H11.222C5.022 8 0 13.024 0 19.22c0 6.2 5.024 11.222 11.222 11.222h8.367a7.742 7.742 0 0 0-1.234 4.206 7.783 7.783 0 0 0 7.779 7.777h52.254a7.776 7.776 0 0 0 6.541-11.983Zm218.49 75.206c-.068-4.227-3.526-7.648-7.782-7.648h-70.854a7.778 7.778 0 0 0-7.784 7.777c0 4.286 3.485 7.777 7.784 7.777h10.88a10.45 10.45 0 0 0-.309 2.531c0 5.766 4.674 10.438 10.44 10.438h70.13c5.77 0 10.44-4.673 10.44-10.438 0-5.765-4.673-10.437-10.44-10.437h-12.504ZM976.217 79a7.29 7.29 0 0 0 .205-1.722c0-4.011-3.26-7.278-7.283-7.278h-39.856a7.281 7.281 0 0 0-7.077 9h-13.768A10.432 10.432 0 0 0 898 89.437c0 5.766 4.673 10.438 10.438 10.438h81.49a10.432 10.432 0 0 0 10.438-10.438c0-5.765-4.674-10.437-10.438-10.437h-13.711ZM527.976 23.717h3.937c6.56 0 11.867-5.31 11.867-11.859C543.78 5.308 538.467 0 531.913 0H453.93c-6.56 0-11.868 5.31-11.868 11.858 0 .388.019.77.055 1.148h-14.579c-8.03 0-14.538 6.508-14.538 14.536 0 8.03 6.51 14.536 14.538 14.536h86.408c8.03 0 14.538-6.508 14.538-14.536 0-1.324-.177-2.606-.508-3.825Zm72.405 98.521h-2.048c-7.913 0-14.333 6.417-14.333 14.334 0 7.918 6.417 14.333 14.333 14.333h83.271c7.913 0 14.333-6.417 14.333-14.333 0-7.918-6.417-14.334-14.333-14.334h-1.365c0-5.655-4.583-10.238-10.236-10.238h-59.386c-5.656 0-10.236 4.584-10.236 10.238Z" fill="#FFF" fill-rule="evenodd"  opacity=".3"/></svg>